Coordinates
version=1
nRows=17
nColumns=24
inDegrees=yes

Units are S.I. units (second, meters, Newtons, ...)
Angles are in degrees.

endheader
time	pelvis_tilt	pelvis_list	pelvis_rotation	pelvis_tx	pelvis_ty	pelvis_tz	hip_flexion_r	hip_adduction_r	hip_rotation_r	knee_angle_r	ankle_angle_r	subtalar_angle_r	mtp_angle_r	hip_flexion_l	hip_adduction_l	hip_rotation_l	knee_angle_l	ankle_angle_l	subtalar_angle_l	mtp_angle_l	lumbar_extension	lumbar_bending	lumbar_rotation
      4.28000000	    -11.45429039	     -1.37995277	     -3.18094399	      0.13532848	     -0.00444331	      0.00801923	      4.35894573	      5.33203395	      5.79298449	     -3.35031976	      0.21699008	     -0.08174726	      6.83706004	     34.66724777	     -8.62664968	    -14.80765039	    -44.13476860	     -9.65233123	      7.09691218	     19.44694920	     10.15768028	      2.33947708	      6.49629259
      4.28500000	    -11.39771922	     -1.29014542	     -3.29408503	      0.14015818	     -0.00481040	      0.00797840	      4.00739039	      5.21329365	      5.88198329	     -3.36160639	      0.44174581	      0.05179177	      7.00765778	     34.78586815	     -8.47415118	    -14.96295968	    -43.03098622	     -9.40041801	      6.78761799	     18.85468316	     10.07490684	      2.22477967	      6.64350401
      4.29000000	    -11.40770168	     -1.19704773	     -3.38892063	      0.14501077	     -0.00529521	      0.00796120	      3.73694732	      5.10002830	      5.96480444	     -3.39487357	      0.69184167	      0.11942908	      7.15829141	     34.97006147	     -8.31338950	    -15.09509779	    -41.90219898	     -9.20340415	      6.53250315	     18.41058457	     10.06905715	      2.09209525	      6.76855895
      4.29500000	    -11.41318494	     -1.10826829	     -3.48658295	      0.14986128	     -0.00579758	      0.00791750	      3.46557416	      4.98788741	      6.04611386	     -3.43475565	      0.94429397	      0.20169576	      7.31341308	     35.13528925	     -8.15713147	    -15.23897402	    -40.75316175	     -9.02368692	      6.34052964	     18.00259830	     10.05444310	      1.96747502	      6.89642267
      4.30000000	    -11.44555522	     -1.02523772	     -3.56989846	      0.15474196	     -0.00636915	      0.00788470	      3.22565875	      4.88603313	      6.11560861	     -3.48516315	      1.21215753	      0.25301918	      7.44816821	     35.32050640	     -8.00454272	    -15.37714004	    -39.58585790	     -8.87344329	      6.23440973	     17.68946739	     10.07506549	      1.83798588	      6.99950531
      4.30500000	    -11.50310789	     -0.96075564	     -3.64288687	      0.15958751	     -0.00696594	      0.00778871	      3.01787487	      4.79903964	      6.20458577	     -3.54193588	      1.45266188	      0.30082092	      7.55430584	     35.52676634	     -7.85357515	    -15.45424914	    -38.39534689	     -8.77491087	      6.23006241	     17.45867401	     10.11126621	      1.73250045	      7.09673107
      4.31000000	    -11.54560443	     -0.88020817	     -3.73830012	      0.16445586	     -0.00757098	      0.00769782	      2.79864647	      4.69313230	      6.29448474	     -3.60804032	      1.71629130	      0.37782325	      7.68045703	     35.69288254	     -7.70240991	    -15.60624066	    -37.18506851	     -8.69135564	      6.24917923	     17.21565922	     10.13287096	      1.61756288	      7.21386603
      4.31500000	    -11.51793270	     -0.79614152	     -3.87225925	      0.16931133	     -0.00810400	      0.00758717	      2.50738594	      4.57122368	      6.37764200	     -3.67270939	      1.97893068	      0.56085523	      7.89283773	     35.75472423	     -7.56205635	    -15.81940552	    -35.95351175	     -8.59753042	      6.33189976	     16.93362195	     10.07199912	      1.51246289	      7.38478431
      4.32000000	    -11.60507901	     -0.74522742	     -3.91372898	      0.17420465	     -0.00881710	      0.00743173	      2.33543218	      4.49733229	      6.42949995	     -3.74511004	      2.23068071	      0.58438426	      8.00896086	     35.96341980	     -7.41024807	    -15.91478459	    -34.72271174	     -8.57859900	      6.54813742	     16.82080535	     10.14096628	      1.41324703	      7.43172948
      4.32500000	    -11.63377505	     -0.65878406	     -4.05779465	      0.17906416	     -0.00943642	      0.00734867	      2.11886132	      4.37704890	      6.53329258	     -3.83526757	      2.49512631	      0.76019830	      8.22260428	     36.05809327	     -7.27705735	    -16.13203400	    -33.44661886	     -8.59390885	      6.79128989	     16.72699214	     10.14055168	      1.30373506	      7.61250080
      4.33000000	    -11.72444869	     -0.59684426	     -4.11807736	      0.18393262	     -0.01014944	      0.00718380	      1.96360983	      4.28642415	      6.59252964	     -3.92322333	      2.73382274	      0.83271041	      8.36808727	     36.23772412	     -7.12360807	    -16.27501860	    -32.17325848	     -8.68173321	      7.13056978	     16.69373663	     10.20356180	      1.19989689	      7.67147639
      4.33500000	    -11.77946426	     -0.51855421	     -4.26219366	      0.18877504	     -0.01082229	      0.00710758	      1.78764311	      4.17696823	      6.67643669	     -4.03355922	      2.99698922	      1.01754416	      8.59233867	     36.33760632	     -6.99884183	    -16.48678507	    -30.86080715	     -8.80068408	      7.50746838	     16.77934785	     10.22466353	      1.09188328	      7.84853384
      4.34000000	    -11.87231544	     -0.44809344	     -4.34681796	      0.19363964	     -0.01154158	      0.00697723	      1.64486570	      4.07525670	      6.72801887	     -4.13440392	      3.23564663	      1.15009390	      8.78332723	     36.48375886	     -6.85175926	    -16.67450609	    -29.54474315	     -8.99652729	      7.94187669	     16.89423913	     10.29016897	      0.97642712	      7.93251945
      4.34500000	    -11.94335169	     -0.37570444	     -4.43723804	      0.19851745	     -0.01224229	      0.00682391	      1.48243149	      3.96631647	      6.72926722	     -4.23786484	      3.46180974	      1.33575507	      9.06183557	     36.58017781	     -6.69455033	    -16.84888949	    -28.18418746	     -9.25468531	      8.36692584	     17.20806947	     10.32720981	      0.86427588	      8.07044270
      4.35000000	    -12.08377366	     -0.31282854	     -4.49514013	      0.20340767	     -0.01303374	      0.00662735	      1.38756297	      3.86980040	      6.79609572	     -4.33931104	      3.68945894	      1.43600498	      9.19830347	     36.76267918	     -6.53256874	    -17.00896299	    -26.86326002	     -9.48575762	      8.87919616	     17.30571017	     10.44126385	      0.75417901	      8.08991921
      4.35500000	    -12.17276401	     -0.24331917	     -4.62583275	      0.20828029	     -0.01376135	      0.00651549	      1.25879261	      3.76320041	      6.83531389	     -4.47204039	      3.93109883	      1.68436588	      9.42344893	     36.84518183	     -6.40473576	    -17.22709896	    -25.49031467	     -9.75353752	      9.41889728	     17.67765910	     10.49339414	      0.65300190	      8.25323214
      4.36000000	    -12.28464197	     -0.17377755	     -4.69340928	      0.21320850	     -0.01451851	      0.00633550	      1.13649289	      3.65357208	      6.83357714	     -4.57709520	      4.14281230	      1.88066576	      9.64084373	     36.95186457	     -6.23393041	    -17.39214717	    -24.11476193	    -10.06769550	      9.93410028	     18.03811805	     10.57728048	      0.53326313	      8.31764137
